<?xml version="1.0" encoding="UTF-8" standalone="no"?>
<!-- Generator: Adobe Illustrator 16.0.4, SVG Export Plug-In . SVG Version: 6.00 Build 0)  -->

<svg
   xmlns:dc="http://purl.org/dc/elements/1.1/"
   xmlns:cc="http://creativecommons.org/ns#"
   xmlns:rdf="http://www.w3.org/1999/02/22-rdf-syntax-ns#"
   xmlns:svg="http://www.w3.org/2000/svg"
   xmlns="http://www.w3.org/2000/svg"
   xmlns:sodipodi="http://sodipodi.sourceforge.net/DTD/sodipodi-0.dtd"
   xmlns:inkscape="http://www.inkscape.org/namespaces/inkscape"
   version="1.1"
   id="Layer_1"
   x="0px"
   y="0px"
   width="180px"
   height="180px"
   viewBox="0 0 180 180"
   enable-background="new 0 0 180 180"
   xml:space="preserve"
   inkscape:version="0.48.4 r9939"
   sodipodi:docname="nCoda-logo-favicon-background.svg"
   inkscape:export-filename="/home/crantila/Documents/nCoda/repos/logos/nCoda-logo-favicon-background_400px.png"
   inkscape:export-xdpi="199.7"
   inkscape:export-ydpi="199.7"><metadata
     id="metadata13"><rdf:RDF><cc:Work
         rdf:about=""><dc:format>image/svg+xml</dc:format><dc:type
           rdf:resource="http://purl.org/dc/dcmitype/StillImage" /><dc:title></dc:title></cc:Work></rdf:RDF></metadata><defs
     id="defs11" /><sodipodi:namedview
     pagecolor="#ffffff"
     bordercolor="#666666"
     borderopacity="1"
     objecttolerance="10"
     gridtolerance="10"
     guidetolerance="10"
     inkscape:pageopacity="0"
     inkscape:pageshadow="2"
     inkscape:window-width="1920"
     inkscape:window-height="1059"
     id="namedview9"
     showgrid="false"
     inkscape:zoom="4.5376736"
     inkscape:cx="52.42568"
     inkscape:cy="90"
     inkscape:window-x="-6"
     inkscape:window-y="-1"
     inkscape:window-maximized="1"
     inkscape:current-layer="Layer_1" /><path
     display="none"
     fill="#333333"
     d="M195,176.578c0,10.175-8.247,18.422-18.422,18.422H3.421C-6.752,195-15,186.753-15,176.578  V3.421C-15-6.752-6.752-15,3.421-15h173.157C186.753-15,195-6.752,195,3.421V176.578z"
     id="path3" /><rect
     style="fill:#404040;fill-opacity:1;stroke:none"
     id="rect2990"
     width="180.26859"
     height="179.82784"
     x="0"
     y="0.17216972" /><g
     id="g5"><path
       fill="#50C878"
       d="M158.867,103.242c-0.393,1.867-1.301,3.326-3.312,2.901l-17.094-3.603   c-7.1,26.561-31.814,44.157-55.48,41.119l-4.239,20.112c-0.424,2.012-2.125,2.253-3.993,1.859   c-1.867-0.395-3.327-1.302-2.902-3.312l4.239-20.112c-22.879-6.772-38.244-32.817-34.162-60.014L22.96,78.196   c-2.011-0.424-2.252-2.125-1.859-3.992c0.394-1.868,1.301-3.327,3.312-2.903l18.963,3.997c7.303-26.819,31.812-44.158,55.479-41.12   l3.906-18.532c0.393-1.867,2.095-2.109,3.962-1.715s3.326,1.302,2.933,3.169l-3.906,18.532   c22.881,6.773,38.418,32.704,34.164,60.015l17.094,3.603C159.02,99.673,159.262,101.374,158.867,103.242z M67.798,80.445   l20.399,4.3l8.963-42.522C76.397,39.647,72.703,57.173,67.798,80.445z M77.539,135.312l9.205-43.672l-20.399-4.299   C61.826,109.494,59.461,129.251,77.539,135.312z M104.055,43.677l-8.963,42.521l21.117,4.452   C121.115,67.377,123.805,49.639,104.055,43.677z M114.756,97.545l-21.117-4.451l-9.205,43.672   C102.846,138.396,109.693,119.434,114.756,97.545z"
       id="path7" /></g></svg>