<?xml version="1.0" encoding="UTF-8" standalone="no"?>
<!-- Created with Inkscape (http://www.inkscape.org/) -->

<svg
   xmlns:dc="http://purl.org/dc/elements/1.1/"
   xmlns:cc="http://creativecommons.org/ns#"
   xmlns:rdf="http://www.w3.org/1999/02/22-rdf-syntax-ns#"
   xmlns:svg="http://www.w3.org/2000/svg"
   xmlns="http://www.w3.org/2000/svg"
   version="1.1"
   width="587.45276"
   height="172.01868"
   viewBox="0 0 587.45276 172.01868"
   id="Layer_1"
   xml:space="preserve"><metadata
     id="metadata13"><rdf:RDF><cc:Work
         rdf:about=""><dc:format>image/svg+xml</dc:format><dc:type
           rdf:resource="http://purl.org/dc/dcmitype/StillImage" /><dc:title></dc:title></cc:Work></rdf:RDF></metadata><defs
     id="defs11" /><path
     d="m 184.05714,172.80797 c 0,10.175 -8.247,18.422 -18.422,18.422 H -7.5218595 c -10.1729995,0 -18.4209995,-8.247 -18.4209995,-18.422 V -0.34903222 c 0,-10.17300078 8.248,-18.42100078 18.4209995,-18.42100078 H 165.63514 c 10.175,0 18.422,8.248 18.422,18.42100078 V 172.80797 z"
     id="path3"
     style="fill:#333333;display:none" /><g
     transform="translate(-10.942859,-3.7700325)"
     id="g5"><path
       d="m 158.867,103.242 c -0.393,1.867 -1.301,3.326 -3.312,2.901 l -17.094,-3.603 c -7.1,26.561 -31.814,44.157 -55.48,41.119 l -4.239,20.112 c -0.424,2.012 -2.125,2.253 -3.993,1.859 -1.867,-0.395 -3.327,-1.302 -2.902,-3.312 l 4.239,-20.112 C 53.207,135.434 37.842,109.389 41.924,82.192 L 22.96,78.196 c -2.011,-0.424 -2.252,-2.125 -1.859,-3.992 0.394,-1.868 1.301,-3.327 3.312,-2.903 l 18.963,3.997 C 50.679,48.479 75.188,31.14 98.855,34.178 l 3.906,-18.532 c 0.393,-1.867 2.095,-2.109 3.962,-1.715 1.867,0.394 3.326,1.302 2.933,3.169 l -3.906,18.532 c 22.881,6.773 38.418,32.704 34.164,60.015 l 17.094,3.603 c 2.012,0.423 2.254,2.124 1.859,3.992 z M 67.798,80.445 88.197,84.745 97.16,42.223 C 76.397,39.647 72.703,57.173 67.798,80.445 z m 9.741,54.867 9.205,-43.672 -20.399,-4.299 c -4.519,22.153 -6.884,41.91 11.194,47.971 z m 26.516,-91.635 -8.963,42.521 21.117,4.452 c 4.906,-23.273 7.596,-41.011 -12.154,-46.973 z m 10.701,53.868 -21.117,-4.451 -9.205,43.672 c 18.412,1.63 25.259,-17.332 30.322,-39.221 z"
       id="path7"
       style="fill:#50c878" /></g><text
     x="174.17403"
     y="139.00134"
     id="text2990"
     xml:space="preserve"
     style="font-size:16px;font-style:normal;font-variant:normal;font-weight:normal;font-stretch:normal;line-height:125%;letter-spacing:0px;word-spacing:0px;fill:#444444;fill-opacity:1;stroke:none;font-family:Fira Sans;-inkscape-font-specification:Fira Sans"><tspan
       x="174.17403"
       y="139.00134"
       id="tspan2992"
       style="font-size:144px;fill:#444444;fill-opacity:1">nCoda</tspan></text>
</svg>